<svg width="512" height="512" viewBox="0 0 512 512" fill="none" xmlns="http://www.w3.org/2000/svg">
<g clip-path="url(#clip0)">
<path d="M431.997 271.997C427.752 271.997 435.901 269.353 320.406 313.774C255.331 196.532 240.098 16.5768 239.948 14.7149C238.735 -0.353933 219.09 -5.48086 210.687 7.12496L187.563 41.8115L152.875 18.6868C143.667 12.5499 131.156 17.4048 128.478 28.1197L117.986 70.0931L88.877 50.6874C79.6691 44.5505 67.1583 49.4054 64.4803 60.1202L53.9875 102.094L24.8779 82.6869C13.805 75.306 -0.98079 83.9349 0.051196 97.2357C0.373192 101.389 8.27909 200.094 38.2977 300.577C67.5603 398.53 122.271 511.994 224 511.994C236.863 511.994 249.624 508.871 260.959 502.958L433.49 431.92C440.417 429.058 437.551 430.283 442.168 428.347C488.821 409.138 486.754 410.501 489.905 407.199C538.234 356.531 502.044 271.997 431.997 271.997ZM247.219 474.017C241.734 476.272 240.998 476.492 239.452 477.467C234.523 479.147 229.351 479.995 224 479.995C100.988 479.995 51.0705 250.529 35.5967 128.291L55.1274 141.312C64.3353 147.449 76.8461 142.594 79.5241 131.879L90.017 89.9058L119.126 109.312C128.314 115.438 140.839 110.614 143.522 99.8787L154.015 57.9053L183.124 77.311C190.475 82.2119 200.409 80.226 205.311 72.8731L213.152 61.1122C225.164 147.146 249.078 249.325 290.261 325.366L218.254 353.06C211.059 355.828 206.859 363.334 208.267 370.914C209.675 378.495 216.288 383.993 223.998 383.993C250.466 383.993 271.997 405.526 271.997 431.992C271.999 449.504 262.525 465.54 247.219 474.017ZM468.86 382.751C439.491 394.843 337.721 436.746 301.564 451.633C309.53 420.075 297.68 386.597 270.791 367.141C517.104 272.405 332.191 343.526 434.764 304.075C474.211 306.33 493.907 352.801 468.86 382.751Z" fill="url(#paint0_linear)"/>
<path d="M101.945 206.854L181.944 174.855C190.148 171.573 194.139 162.262 190.857 154.057C187.576 145.853 178.263 141.861 170.059 145.144L90.0601 177.144C81.8562 180.426 77.8653 189.737 81.1472 197.941C84.4182 206.121 93.72 210.146 101.945 206.854V206.854Z" fill="url(#paint1_linear)"/>
<path d="M206.856 218.056C203.575 209.852 194.262 205.859 186.059 209.143L106.06 241.143C97.8557 244.425 93.8648 253.736 97.1467 261.94C99.6487 268.196 105.658 272.002 112.007 272.002C116.333 272.002 111.072 273.602 197.943 238.854C206.147 235.572 210.138 226.26 206.856 218.056V218.056Z" fill="url(#paint2_linear)"/>
</g>
<defs>
<linearGradient id="paint0_linear" x1="256" y1="0.00537109" x2="256" y2="511.994" gradientUnits="userSpaceOnUse">
<stop stop-color="#F5AF19"/>
<stop offset="1" stop-color="#F12711"/>
</linearGradient>
<linearGradient id="paint1_linear" x1="136.002" y1="143.995" x2="136.002" y2="208.004" gradientUnits="userSpaceOnUse">
<stop stop-color="#F5AF19"/>
<stop offset="1" stop-color="#F12711"/>
</linearGradient>
<linearGradient id="paint2_linear" x1="152.001" y1="207.994" x2="152.001" y2="272.014" gradientUnits="userSpaceOnUse">
<stop stop-color="#F5AF19"/>
<stop offset="1" stop-color="#F12711"/>
</linearGradient>
<clipPath id="clip0">
<rect width="512" height="512" fill="white"/>
</clipPath>
</defs>
</svg>
